<svg width="28" height="28" viewBox="0 0 28 28" fill="none" xmlns="http://www.w3.org/2000/svg">
<g id="akar-icons:reciept">
<g id="Group">
<path id="Vector" d="M22.1667 24.5H8.16667C6.92899 24.5 5.742 24.0083 4.86683 23.1332C3.99167 22.258 3.5 21.071 3.5 19.8333V5.83333C3.5 5.21449 3.74583 4.621 4.18342 4.18342C4.621 3.74583 5.21449 3.5 5.83333 3.5H17.5C18.1188 3.5 18.7123 3.74583 19.1499 4.18342C19.5875 4.621 19.8333 5.21449 19.8333 5.83333V21C19.8333 22.9332 20.2335 24.5 22.1667 24.5Z" stroke="#666666" stroke-width="1.5" stroke-linecap="round" stroke-linejoin="round"/>
<path id="Vector_2" d="M24.5002 11.6663C24.5002 11.0475 24.2543 10.454 23.8167 10.0164C23.3792 9.57884 22.7857 9.33301 22.1668 9.33301H19.8335V21.583C19.8335 23.193 20.5568 24.4997 22.1668 24.4997C23.7768 24.4997 24.5002 23.193 24.5002 21.583V11.6663Z" stroke="#666666" stroke-width="1.5" stroke-linecap="round" stroke-linejoin="round"/>
<path id="Vector_3" d="M15.1665 12.8337H8.1665M15.1665 8.16699H8.1665M11.6665 17.5003H8.1665" stroke="#666666" stroke-width="1.5" stroke-linecap="round"/>
</g>
</g>
</svg>
