<svg width="28" height="28" viewBox="0 0 28 28" fill="none" xmlns="http://www.w3.org/2000/svg">
<path d="M20.7812 11.8125V3.9375C20.7812 3.45352 20.3902 3.0625 19.9062 3.0625H8.09375C7.60977 3.0625 7.21875 3.45352 7.21875 3.9375V11.8125C5.40859 11.8125 3.9375 13.2371 3.9375 14.9844V24.7188C3.9375 24.8391 4.03594 24.9375 4.15625 24.9375H5.6875C5.80781 24.9375 5.90625 24.8391 5.90625 24.7188V14.9844C5.90625 14.3199 6.49688 13.7812 7.22148 13.7812H20.7785C21.5031 13.7812 22.0938 14.3199 22.0938 14.9844V24.7188C22.0938 24.8391 22.1922 24.9375 22.3125 24.9375H23.8438C23.9641 24.9375 24.0625 24.8391 24.0625 24.7188V14.9844C24.0625 13.2371 22.5914 11.8125 20.7812 11.8125ZM9.1875 11.8125V5.03125H18.8125V11.8125H9.1875ZM12.4688 6.78125H11.1562C11.0359 6.78125 10.9375 6.87969 10.9375 7V8.3125C10.9375 8.43281 11.0359 8.53125 11.1562 8.53125H12.4688C12.5891 8.53125 12.6875 8.43281 12.6875 8.3125V7C12.6875 6.87969 12.5891 6.78125 12.4688 6.78125ZM16.8438 6.78125H15.5312C15.4109 6.78125 15.3125 6.87969 15.3125 7V8.3125C15.3125 8.43281 15.4109 8.53125 15.5312 8.53125H16.8438C16.9641 8.53125 17.0625 8.43281 17.0625 8.3125V7C17.0625 6.87969 16.9641 6.78125 16.8438 6.78125Z" fill="#666666"/>
<g clip-path="url(#clip0_865_363)">
<path d="M12 19.9997V19.4163C12 18.2813 12.8343 17.333 14 17.333C15.1657 17.333 16 18.2813 16 19.4163V19.9997H16.1667C16.3877 19.9997 16.5996 20.0875 16.7559 20.2438C16.9122 20.4 17 20.612 17 20.833V23.4997C17 23.7207 16.9122 23.9327 16.7559 24.0889C16.5996 24.2452 16.3877 24.333 16.1667 24.333H11.8333C11.6123 24.333 11.4004 24.2452 11.2441 24.0889C11.0878 23.9327 11 23.7207 11 23.4997V20.833C11 20.612 11.0878 20.4 11.2441 20.2438C11.4004 20.0875 11.6123 19.9997 11.8333 19.9997H12ZM11.5 20.833V23.4997C11.5 23.5881 11.5351 23.6729 11.5976 23.7354C11.6601 23.7979 11.7449 23.833 11.8333 23.833H16.1667C16.2551 23.833 16.3399 23.7979 16.4024 23.7354C16.4649 23.6729 16.5 23.5881 16.5 23.4997V20.833C16.5 20.7446 16.4649 20.6598 16.4024 20.5973C16.3399 20.5348 16.2551 20.4997 16.1667 20.4997H11.8333C11.7449 20.4997 11.6601 20.5348 11.5976 20.5973C11.5351 20.6598 11.5 20.7446 11.5 20.833ZM12.5 19.4163V19.9997H15.5V19.4163C15.5 18.5263 14.8593 17.833 14 17.833C13.1407 17.833 12.5 18.5263 12.5 19.4163Z" fill="#0083CA" stroke="#0083CA" stroke-width="0.5"/>
</g>
<defs>
<clipPath id="clip0_865_363">
<rect width="8" height="8" fill="white" transform="translate(10 17)"/>
</clipPath>
</defs>
</svg>
