<svg width="28" height="28" viewBox="0 0 28 28" fill="none" xmlns="http://www.w3.org/2000/svg">
<path d="M9.09934 10.918C9.18334 10.918 9.24168 10.9343 9.27434 10.967C9.30701 10.995 9.33501 11.0603 9.35834 11.163L10.1773 14.698L10.9893 11.254C10.9987 11.226 11.008 11.1887 11.0173 11.142C11.0267 11.0953 11.0313 11.058 11.0313 11.03C11.0313 11.0067 11.0173 10.9693 10.9893 10.918H11.7733C11.8947 10.918 11.9553 10.9623 11.9553 11.051C11.9553 11.0837 11.9483 11.1233 11.9343 11.17L10.7303 16H9.68734L8.81234 12.269L7.94434 16H6.91534L5.67634 11.121C5.65301 11.0323 5.60868 10.9647 5.54334 10.918H6.37634C6.46501 10.918 6.52801 10.9343 6.56534 10.967C6.60268 10.995 6.63301 11.0603 6.65634 11.163L7.48234 14.67L8.26634 11.282C8.27568 11.2307 8.28501 11.184 8.29434 11.142C8.30368 11.0953 8.30834 11.0603 8.30834 11.037C8.30834 11.009 8.29434 10.9693 8.26634 10.918H9.09934ZM17.062 13.466C17.062 13.8627 17.0083 14.2243 16.901 14.551C16.7983 14.873 16.642 15.1507 16.432 15.384C16.2267 15.6127 15.9723 15.79 15.669 15.916C15.3657 16.042 15.018 16.105 14.626 16.105C14.234 16.105 13.884 16.042 13.576 15.916C13.2727 15.79 13.016 15.6127 12.806 15.384C12.6007 15.1553 12.4443 14.88 12.337 14.558C12.2297 14.2313 12.176 13.8673 12.176 13.466C12.176 13.0693 12.2297 12.7077 12.337 12.381C12.4443 12.0543 12.6007 11.7743 12.806 11.541C13.016 11.3077 13.2727 11.128 13.576 11.002C13.8793 10.876 14.2293 10.813 14.626 10.813C15.0227 10.813 15.3727 10.876 15.676 11.002C15.9793 11.128 16.2337 11.3077 16.439 11.541C16.6443 11.7697 16.7983 12.0473 16.901 12.374C17.0083 12.7007 17.062 13.0647 17.062 13.466ZM16.082 13.466C16.082 12.7847 15.9513 12.2667 15.69 11.912C15.4333 11.5527 15.0787 11.373 14.626 11.373C14.164 11.373 13.8023 11.5527 13.541 11.912C13.2843 12.2667 13.156 12.7847 13.156 13.466C13.156 13.802 13.191 14.1007 13.261 14.362C13.331 14.6187 13.429 14.8357 13.555 15.013C13.6857 15.1857 13.842 15.3187 14.024 15.412C14.206 15.5007 14.4067 15.545 14.626 15.545C15.074 15.545 15.4287 15.37 15.69 15.02C15.9513 14.6653 16.082 14.1473 16.082 13.466ZM20.9743 14.523V11.387C20.9743 11.317 20.9696 11.2377 20.9603 11.149C20.9556 11.0603 20.9323 10.9833 20.8903 10.918H21.6183C21.8423 10.918 21.9543 10.9973 21.9543 11.156V16H20.7853L18.7343 12.003V16H17.7543V11.394C17.7543 11.324 17.7496 11.2423 17.7403 11.149C17.731 11.0557 17.7053 10.9787 17.6633 10.918H18.9653C19.012 10.918 19.0493 10.9227 19.0773 10.932C19.1053 10.9367 19.1286 10.9483 19.1473 10.967C19.166 10.9857 19.1823 11.0113 19.1963 11.044C19.215 11.0767 19.236 11.1163 19.2593 11.163L20.9743 14.523Z" fill="#0083CA"/>
<path d="M9.27434 10.967L9.20342 11.0379L9.20926 11.0429L9.27434 10.967ZM9.35834 11.163L9.26083 11.1852L9.26092 11.1856L9.35834 11.163ZM10.1773 14.698L10.0799 14.7206L10.2747 14.7209L10.1773 14.698ZM10.9893 11.254L10.8941 11.2222L10.892 11.2311L10.9893 11.254ZM11.0173 11.142L10.9193 11.1224L10.9193 11.1224L11.0173 11.142ZM10.9893 10.918V10.818H10.8209L10.9016 10.9659L10.9893 10.918ZM11.9343 11.17L11.8385 11.1412L11.8373 11.1458L11.9343 11.17ZM10.7303 16V16.1H10.8085L10.8274 16.0242L10.7303 16ZM9.68734 16L9.58999 16.0228L9.60808 16.1H9.68734V16ZM8.81234 12.269L8.9097 12.2462L8.71495 12.2463L8.81234 12.269ZM7.94434 16V16.1H8.02375L8.04174 16.0227L7.94434 16ZM6.91534 16L6.81842 16.0246L6.83756 16.1H6.91534V16ZM5.67634 11.121L5.77327 11.0964L5.77305 11.0956L5.67634 11.121ZM5.54334 10.918V10.818H5.2313L5.48522 10.9994L5.54334 10.918ZM6.56534 10.967L6.49931 11.0425L6.50534 11.047L6.56534 10.967ZM6.65634 11.163L6.55883 11.1852L6.55901 11.1859L6.65634 11.163ZM7.48234 14.67L7.38501 14.6929L7.57977 14.6925L7.48234 14.67ZM8.26634 11.282L8.36388 11.3046L8.36473 11.2999L8.26634 11.282ZM8.29434 11.142L8.39198 11.1637L8.3924 11.1616L8.29434 11.142ZM8.26634 10.918V10.818H8.09789L8.17855 10.9659L8.26634 10.918ZM9.09934 11.018C9.17655 11.018 9.20014 11.0342 9.20363 11.0377L9.34505 10.8963C9.28321 10.8344 9.19014 10.818 9.09934 10.818V11.018ZM9.20926 11.0429C9.20877 11.0425 9.2165 11.0497 9.22793 11.0764C9.23871 11.1015 9.24993 11.1372 9.26083 11.1852L9.45586 11.1408C9.44342 11.0861 9.42898 11.0378 9.41176 10.9976C9.39519 10.9589 9.37259 10.9195 9.33942 10.8911L9.20926 11.0429ZM9.26092 11.1856L10.0799 14.7206L10.2748 14.6754L9.45576 11.1404L9.26092 11.1856ZM10.2747 14.7209L11.0867 11.2769L10.892 11.2311L10.08 14.6751L10.2747 14.7209ZM11.0842 11.2856C11.0954 11.2521 11.1057 11.2102 11.1154 11.1616L10.9193 11.1224C10.9103 11.1671 10.902 11.1999 10.8945 11.2224L11.0842 11.2856ZM11.1154 11.1616C11.1253 11.1123 11.1313 11.0676 11.1313 11.03H10.9313C10.9313 11.0484 10.9281 11.0784 10.9193 11.1224L11.1154 11.1616ZM11.1313 11.03C11.1313 11.0008 11.1231 10.9725 11.1145 10.9494C11.1053 10.9248 11.0924 10.8982 11.0771 10.8701L10.9016 10.9659C10.9142 10.9891 10.9224 11.0068 10.9272 11.0196C10.9326 11.0339 10.9313 11.0359 10.9313 11.03H11.1313ZM10.9893 11.018H11.7733V10.818H10.9893V11.018ZM11.7733 11.018C11.8248 11.018 11.8453 11.0279 11.8508 11.032C11.8526 11.0332 11.8527 11.0337 11.853 11.0343C11.8535 11.0354 11.8553 11.0402 11.8553 11.051H12.0553C12.0553 10.9813 12.0298 10.9151 11.9688 10.8705C11.9137 10.8302 11.8432 10.818 11.7733 10.818V11.018ZM11.8553 11.051C11.8553 11.0704 11.851 11.0998 11.8386 11.1413L12.0301 11.1987C12.0457 11.1468 12.0553 11.0969 12.0553 11.051H11.8553ZM11.8373 11.1458L10.6333 15.9758L10.8274 16.0242L12.0314 11.1942L11.8373 11.1458ZM10.7303 15.9H9.68734V16.1H10.7303V15.9ZM9.7847 15.9772L8.9097 12.2462L8.71499 12.2918L9.58999 16.0228L9.7847 15.9772ZM8.71495 12.2463L7.84694 15.9773L8.04174 16.0227L8.90974 12.2917L8.71495 12.2463ZM7.94434 15.9H6.91534V16.1H7.94434V15.9ZM7.01227 15.9754L5.77327 11.0964L5.57942 11.1456L6.81842 16.0246L7.01227 15.9754ZM5.77305 11.0956C5.74467 10.9877 5.68846 10.8988 5.60147 10.8366L5.48522 10.9994C5.52889 11.0306 5.56135 11.077 5.57964 11.1464L5.77305 11.0956ZM5.54334 11.018H6.37634V10.818H5.54334V11.018ZM6.37634 11.018C6.45794 11.018 6.49011 11.034 6.49949 11.0423L6.63119 10.8917C6.56591 10.8346 6.47208 10.818 6.37634 10.818V11.018ZM6.50534 11.047C6.50504 11.0468 6.50717 11.0483 6.51107 11.0537C6.51496 11.0591 6.51988 11.0672 6.52539 11.0791C6.53658 11.1032 6.54808 11.1379 6.55883 11.1852L6.75386 11.1408C6.74127 11.0855 6.72595 11.0361 6.70679 10.9949C6.68812 10.9547 6.66248 10.9149 6.62534 10.887L6.50534 11.047ZM6.55901 11.1859L7.38501 14.6929L7.57968 14.6471L6.75368 11.1401L6.55901 11.1859ZM7.57977 14.6925L8.36377 11.3045L8.16892 11.2595L7.38492 14.6475L7.57977 14.6925ZM8.36473 11.2999C8.37388 11.2496 8.38296 11.2042 8.39196 11.1637L8.19673 11.1203C8.18706 11.1638 8.17748 11.2118 8.16796 11.2641L8.36473 11.2999ZM8.3924 11.1616C8.40199 11.1137 8.40834 11.0707 8.40834 11.037H8.20834C8.20834 11.05 8.20537 11.077 8.19629 11.1224L8.3924 11.1616ZM8.40834 11.037C8.40834 10.9821 8.38321 10.9234 8.35413 10.8701L8.17855 10.9659C8.19091 10.9885 8.19886 11.0062 8.20354 11.0195C8.20847 11.0335 8.20834 11.0385 8.20834 11.037H8.40834ZM8.26634 11.018H9.09934V10.818H8.26634V11.018ZM16.901 14.551L16.806 14.5198L16.8057 14.5206L16.901 14.551ZM16.432 15.384L16.3577 15.3171L16.3576 15.3172L16.432 15.384ZM15.669 15.916L15.7074 16.0083L15.7074 16.0083L15.669 15.916ZM13.576 15.916L13.5376 16.0084L13.5381 16.0086L13.576 15.916ZM12.806 15.384L12.7316 15.4508L12.7324 15.4516L12.806 15.384ZM12.337 14.558L12.242 14.5892L12.2421 14.5896L12.337 14.558ZM12.337 12.381L12.242 12.3498L12.337 12.381ZM12.806 11.541L12.7317 11.4741L12.7309 11.4749L12.806 11.541ZM13.576 11.002L13.5376 10.9097L13.576 11.002ZM16.439 11.541L16.3639 11.6071L16.3646 11.6078L16.439 11.541ZM16.901 12.374L16.8056 12.404L16.806 12.4052L16.901 12.374ZM15.69 11.912L15.6086 11.9701L15.6095 11.9713L15.69 11.912ZM13.541 11.912L13.4601 11.8532L13.46 11.8534L13.541 11.912ZM13.261 14.362L13.1644 14.3879L13.1645 14.3883L13.261 14.362ZM13.555 15.013L13.4735 15.0709L13.4753 15.0733L13.555 15.013ZM14.024 15.412L13.9784 15.501L13.9802 15.5019L14.024 15.412ZM15.69 15.02L15.7701 15.0798L15.7705 15.0793L15.69 15.02ZM16.962 13.466C16.962 13.8537 16.9096 14.2046 16.806 14.5198L16.996 14.5822C17.1071 14.2441 17.162 13.8717 17.162 13.466H16.962ZM16.8057 14.5206C16.707 14.8302 16.5575 15.0951 16.3577 15.3171L16.5063 15.4509C16.7265 15.2062 16.8896 14.9158 16.9963 14.5814L16.8057 14.5206ZM16.3576 15.3172C16.1629 15.534 15.9212 15.703 15.6306 15.8237L15.7074 16.0083C16.0235 15.877 16.2904 15.6913 16.5064 15.4508L16.3576 15.3172ZM15.6306 15.8237C15.3416 15.9437 15.0073 16.005 14.626 16.005V16.205C15.0287 16.205 15.3898 16.1403 15.7074 16.0083L15.6306 15.8237ZM14.626 16.005C14.2447 16.005 13.9079 15.9437 13.6139 15.8234L13.5381 16.0086C13.8601 16.1403 14.2233 16.205 14.626 16.205V16.005ZM13.6144 15.8237C13.3237 15.7029 13.0793 15.5337 12.8797 15.3164L12.7324 15.4516C12.9527 15.6916 13.2217 15.8771 13.5376 16.0083L13.6144 15.8237ZM12.8804 15.3172C12.6852 15.0997 12.5353 14.8367 12.4319 14.5264L12.2421 14.5896C12.3534 14.9233 12.5162 15.2109 12.7316 15.4508L12.8804 15.3172ZM12.432 14.5268C12.3285 14.2117 12.276 13.8585 12.276 13.466H12.076C12.076 13.8762 12.1309 14.251 12.242 14.5892L12.432 14.5268ZM12.276 13.466C12.276 13.0783 12.3285 12.7274 12.432 12.4122L12.242 12.3498C12.1309 12.6879 12.076 13.0603 12.076 13.466H12.276ZM12.432 12.4122C12.5356 12.097 12.6856 11.8292 12.8811 11.6071L12.7309 11.4749C12.5158 11.7194 12.3531 12.0116 12.242 12.3498L12.432 12.4122ZM12.8803 11.6079C13.0799 11.3861 13.3241 11.2149 13.6144 11.0943L13.5376 10.9097C13.2212 11.0411 12.9521 11.2292 12.7317 11.4741L12.8803 11.6079ZM13.6144 11.0943C13.9033 10.9743 14.2398 10.913 14.626 10.913V10.713C14.2188 10.713 13.8554 10.7777 13.5376 10.9097L13.6144 11.0943ZM14.626 10.913C15.0122 10.913 15.3487 10.9743 15.6376 11.0943L15.7144 10.9097C15.3966 10.7777 15.0332 10.713 14.626 10.713V10.913ZM15.6376 11.0943C15.9277 11.2148 16.1692 11.3858 16.3639 11.6071L16.5141 11.4749C16.2981 11.2295 16.031 11.0412 15.7144 10.9097L15.6376 11.0943ZM16.3646 11.6078C16.5593 11.8247 16.7067 12.0894 16.8056 12.404L16.9964 12.344C16.8899 12.0053 16.7293 11.7146 16.5134 11.4742L16.3646 11.6078ZM16.806 12.4052C16.9095 12.7203 16.962 13.0735 16.962 13.466H17.162C17.162 13.0558 17.1072 12.681 16.996 12.3428L16.806 12.4052ZM16.182 13.466C16.182 12.7743 16.0497 12.2316 15.7705 11.8527L15.6095 11.9713C15.8529 12.3017 15.982 12.7951 15.982 13.466H16.182ZM15.7714 11.8539C15.4954 11.4675 15.11 11.273 14.626 11.273V11.473C15.0473 11.473 15.3713 11.6378 15.6086 11.9701L15.7714 11.8539ZM14.626 11.273C14.1335 11.273 13.7412 11.4668 13.4601 11.8532L13.6219 11.9708C13.8635 11.6385 14.1945 11.473 14.626 11.473V11.273ZM13.46 11.8534C13.1858 12.2322 13.056 12.7745 13.056 13.466H13.256C13.256 12.7948 13.3828 12.3011 13.622 11.9706L13.46 11.8534ZM13.056 13.466C13.056 13.8087 13.0917 14.1164 13.1644 14.3879L13.3576 14.3361C13.2903 14.085 13.256 13.7953 13.256 13.466H13.056ZM13.1645 14.3883C13.237 14.6539 13.3394 14.8821 13.4735 15.0709L13.6365 14.9551C13.5187 14.7892 13.4251 14.5835 13.3575 14.3357L13.1645 14.3883ZM13.4753 15.0733C13.6145 15.2573 13.7822 15.4004 13.9784 15.501L14.0696 15.323C13.9018 15.2369 13.7569 15.1141 13.6347 14.9527L13.4753 15.0733ZM13.9802 15.5019C14.177 15.5978 14.3928 15.645 14.626 15.645V15.445C14.4206 15.445 14.235 15.4036 14.0678 15.3221L13.9802 15.5019ZM14.626 15.645C15.1046 15.645 15.4894 15.4559 15.7701 15.0798L15.6099 14.9602C15.368 15.2841 15.0434 15.445 14.626 15.445V15.645ZM15.7705 15.0793C16.0497 14.7004 16.182 14.1577 16.182 13.466H15.982C15.982 14.1369 15.8529 14.6303 15.6095 14.9607L15.7705 15.0793ZM20.9743 14.523L20.8852 14.5685L21.0743 14.523H20.9743ZM20.9603 11.149L20.8603 11.1543L20.8608 11.1595L20.9603 11.149ZM20.8903 10.918V10.818H20.7071L20.8062 10.9721L20.8903 10.918ZM21.9543 16V16.1H22.0543V16H21.9543ZM20.7853 16L20.6963 16.0457L20.7242 16.1H20.7853V16ZM18.7343 12.003L18.8233 11.9573L18.6343 12.003H18.7343ZM18.7343 16V16.1H18.8343V16H18.7343ZM17.7543 16H17.6543V16.1H17.7543V16ZM17.7403 11.149L17.6408 11.159L17.6408 11.159L17.7403 11.149ZM17.6633 10.918V10.818H17.4724L17.5811 10.9749L17.6633 10.918ZM19.0773 10.932L19.0457 11.0269L19.0531 11.0293L19.0609 11.0306L19.0773 10.932ZM19.1963 11.044L19.1038 11.0837L19.1095 11.0936L19.1963 11.044ZM19.2593 11.163L19.1699 11.2077L19.1702 11.2085L19.2593 11.163ZM21.0743 14.523V11.387H20.8743V14.523H21.0743ZM21.0743 11.387C21.0743 11.3127 21.0694 11.2298 21.0597 11.1385L20.8608 11.1595C20.8699 11.2455 20.8743 11.3213 20.8743 11.387H21.0743ZM21.0602 11.1437C21.0547 11.0402 21.0271 10.9459 20.9744 10.8639L20.8062 10.9721C20.8375 11.0208 20.8565 11.0804 20.8604 11.1543L21.0602 11.1437ZM20.8903 11.018H21.6183V10.818H20.8903V11.018ZM21.6183 11.018C21.7215 11.018 21.7811 11.0368 21.8125 11.0591C21.8376 11.0769 21.8543 11.1033 21.8543 11.156H22.0543C22.0543 11.05 22.015 10.9574 21.9281 10.8959C21.8475 10.8388 21.7391 10.818 21.6183 10.818V11.018ZM21.8543 11.156V16H22.0543V11.156H21.8543ZM21.9543 15.9H20.7853V16.1H21.9543V15.9ZM20.8743 15.9543L18.8233 11.9573L18.6453 12.0487L20.6963 16.0457L20.8743 15.9543ZM18.6343 12.003V16H18.8343V12.003H18.6343ZM18.7343 15.9H17.7543V16.1H18.7343V15.9ZM17.8543 16V11.394H17.6543V16H17.8543ZM17.8543 11.394C17.8543 11.3198 17.8494 11.2347 17.8398 11.139L17.6408 11.159C17.6499 11.25 17.6543 11.3282 17.6543 11.394H17.8543ZM17.8398 11.139C17.8292 11.0333 17.7994 10.939 17.7455 10.8611L17.5811 10.9749C17.6112 11.0184 17.6327 11.078 17.6408 11.159L17.8398 11.139ZM17.6633 11.018H18.9653V10.818H17.6633V11.018ZM18.9653 11.018C19.0067 11.018 19.032 11.0223 19.0457 11.0269L19.1089 10.8371C19.0666 10.823 19.0172 10.818 18.9653 10.818V11.018ZM19.0609 11.0306C19.0699 11.0322 19.0738 11.0349 19.0766 11.0377L19.218 10.8963C19.1835 10.8618 19.1407 10.8412 19.0937 10.8334L19.0609 11.0306ZM19.0766 11.0377C19.0837 11.0449 19.0938 11.0586 19.1044 11.0834L19.2882 11.0046C19.2708 10.9641 19.2482 10.9265 19.218 10.8963L19.0766 11.0377ZM19.1095 11.0936C19.1269 11.1242 19.1471 11.1621 19.1699 11.2077L19.3487 11.1183C19.3249 11.0705 19.303 11.0291 19.2831 10.9944L19.1095 11.0936ZM19.1702 11.2085L20.8852 14.5685L21.0634 14.4775L19.3484 11.1175L19.1702 11.2085Z" fill="#0083CA"/>
<rect x="2.75" y="3.75" width="23" height="19.5" rx="1.25" stroke="#666666" stroke-width="1.5"/>
</svg>
