<svg width="28" height="28" viewBox="0 0 28 28" fill="none" xmlns="http://www.w3.org/2000/svg">
<path d="M20.125 26.25L18.2534 25.3636C17.5058 25.0073 16.8742 24.4469 16.4313 23.7472C15.9884 23.0474 15.7522 22.2368 15.75 21.4086V15.75H24.5V21.4095C24.4978 22.2376 24.2616 23.0483 23.8187 23.7481C23.3758 24.4478 22.7442 25.0081 21.9966 25.3645L20.125 26.25ZM17.5 17.5V21.4095C17.5016 21.9062 17.6434 22.3923 17.9092 22.8118C18.175 23.2313 18.554 23.5672 19.0024 23.7807L20.125 24.3127L21.2476 23.7816C21.6962 23.568 22.0752 23.232 22.341 22.8123C22.6068 22.3926 22.7486 21.9063 22.75 21.4095V17.5H17.5Z" fill="#0083CA"/>
<path d="M14 24.5003H5.25V3.5003H12.25V8.7503C12.2514 9.214 12.4362 9.65832 12.7641 9.98621C13.092 10.3141 13.5363 10.4989 14 10.5003H19.25V13.1253H21V8.7503C21.0031 8.6353 20.9812 8.521 20.9359 8.41527C20.8906 8.30953 20.8229 8.21487 20.7375 8.1378L14.6125 2.0128C14.5355 1.92735 14.4408 1.85963 14.3351 1.81431C14.2293 1.76899 14.115 1.74715 14 1.7503H5.25C4.7863 1.75168 4.34198 1.9365 4.01409 2.26439C3.6862 2.59228 3.50138 3.03659 3.5 3.5003V24.5003C3.50138 24.964 3.6862 25.4083 4.01409 25.7362C4.34198 26.0641 4.7863 26.2489 5.25 26.2503H14V24.5003ZM14 3.8503L18.9 8.7503H14V3.8503Z" fill="#666666"/>
</svg>
