<svg width="28" height="28" viewBox="0 0 28 28" fill="none" xmlns="http://www.w3.org/2000/svg">
<g id="ion:phone-portrait-outline">
<path id="Vector" d="M18.375 1H9.625C8.17525 1 7 2.17525 7 3.625V24.625C7 26.0747 8.17525 27.25 9.625 27.25H18.375C19.8247 27.25 21 26.0747 21 24.625V3.625C21 2.17525 19.8247 1 18.375 1Z" stroke="#666666" stroke-width="1.5" stroke-linecap="round" stroke-linejoin="round"/>
<path id="Vector_2" d="M9.625 1H10.9375C11.0535 1 11.1648 1.04609 11.2469 1.12814C11.3289 1.21019 11.375 1.32147 11.375 1.4375C11.375 1.66956 11.4672 1.89212 11.6313 2.05622C11.7954 2.22031 12.0179 2.3125 12.25 2.3125H15.75C15.9821 2.3125 16.2046 2.22031 16.3687 2.05622C16.5328 1.89212 16.625 1.66956 16.625 1.4375C16.625 1.32147 16.6711 1.21019 16.7531 1.12814C16.8352 1.04609 16.9465 1 17.0625 1H18.375" stroke="#666666" stroke-width="1.5" stroke-linecap="round" stroke-linejoin="round"/>
<path id="Vector_3" d="M12.5994 16.7937L10 14.3343L10.873 13.5083L12.5994 15.1417L16.977 11L17.85 11.826L12.5994 16.7937Z" fill="#0083CA"/>
</g>
</svg>
