<svg width="28" height="28" viewBox="0 0 28 28" fill="none" xmlns="http://www.w3.org/2000/svg">
<g id="solar:monitor-smartphone-linear">
<g id="Group">
<path id="Vector" d="M12.8335 19.833H9.3335C6.03416 19.833 4.38333 19.833 3.359 18.8075C2.3335 17.7832 2.3335 16.1323 2.3335 12.833V11.6663C2.3335 7.26684 2.3335 5.06651 3.70083 3.70034C5.067 2.33301 7.26733 2.33301 11.6668 2.33301H18.0835C20.8077 2.33301 22.1692 2.33301 23.2005 2.88367C24.0144 3.31875 24.6811 3.9854 25.1162 4.79934C25.6668 5.83067 25.6668 7.19217 25.6668 9.91634" stroke="#666666" stroke-width="1.5" stroke-linecap="round"/>
<path id="Vector_2" d="M19.5002 23H22.5002M16.3335 17.4997C16.3335 15.2993 16.3335 14.2003 17.0172 13.5167C17.7008 12.833 18.7998 12.833 21.0002 12.833C23.2005 12.833 24.2995 12.833 24.9832 13.5167C25.6668 14.2003 25.6668 15.2993 25.6668 17.4997V20.9997C25.6668 23.2 25.6668 24.299 24.9832 24.9827C24.2995 25.6663 23.2005 25.6663 21.0002 25.6663C18.7998 25.6663 17.7008 25.6663 17.0172 24.9827C16.3335 24.299 16.3335 23.2 16.3335 20.9997V17.4997Z" stroke="#0083CA" stroke-width="1.5" stroke-linecap="round"/>
<path id="Vector_3" d="M9.3335 25.666H12.8335V19.8327M12.8335 15.166H2.3335" stroke="#666666" stroke-width="1.5" stroke-linecap="round"/>
</g>
</g>
</svg>
